<svg xmlns="http://www.w3.org/2000/svg" width="256" height="256">
	<path d="m121 12 2.691.381a463.1 463.1 0 0 1 8.285 1.306l3.138.508c3.386.55 6.77 1.106 10.156 1.664l3.523.58c6.142 1.013 12.283 2.03 18.423 3.052 6.333 1.053 12.67 2.083 19.008 3.11 4.886.795 9.77 1.607 14.652 2.424 2.335.388 4.672.77 7.01 1.143 3.265.525 6.525 1.073 9.785 1.628l2.914.45c5.89 1.036 9.219 2.436 13.415 6.754 1.383 2.766 1.112 5.01 1.098 8.102l-.01 3.671-.025 3.852-.014 3.875c-.012 3.167-.028 6.333-.049 9.5h11v22h-11v74h11v22h-11l.14 5.477c.038 2.382.075 4.765.11 7.148l.102 3.605c.11 9.9.11 9.9-1.997 13.489-2.757 2.67-4.552 3.392-8.292 4.156l-3.09.68C219 217 219 217 214 217v18h-22v-14l-3.616.708c-13.833 2.684-27.702 5.115-41.6 7.439a4204.6 4204.6 0 0 0-10.911 1.85l-7.018 1.175-3.254.558c-5.591.924-10.936 1.766-16.601 1.27l-3-3v-17H64v21H42v-21l-6.125.25c-5.753.006-8.695-.296-12.875-4.25-2.43-3.644-2.256-5.356-2.267-9.698l-.014-2.074c-.013-2.299-.011-4.597-.01-6.895a3659.552 3659.552 0 0 1-.044-18.363c-.001-3.736-.009-7.47-.016-11.206-.016-8.813-.021-17.625-.02-26.438.002-9.092-.02-18.183-.051-27.274-.026-7.804-.037-15.608-.036-23.412 0-4.662-.005-9.323-.026-13.984-.02-4.386-.02-8.771-.005-13.157a547.35 547.35 0 0 0-.015-4.825c-.015-2.199-.006-4.396.01-6.595l-.004-3.725C21.1 38.334 22.482 36.15 25 33c3.028-1.514 6.159-1.13 9.479-1.114h2.336c2.554 0 5.108.009 7.662.016l5.305.005c4.659.003 9.318.013 13.977.024 4.752.01 9.504.015 14.257.02 9.328.01 18.656.028 27.984.049l-.14-3.578c-.038-1.557-.075-3.115-.11-4.672l-.102-2.355c-.06-3.518.067-5.835 1.68-9.004 4.475-2.33 8.822-1.15 13.672-.391Zm7 24v173c18.044-2.576 18.044-2.576 36.035-5.445l3.917-.653c2.683-.447 5.365-.896 8.047-1.346 3.43-.575 6.86-1.147 10.291-1.718 3.311-.55 6.622-1.105 9.933-1.658l3.715-.619 3.433-.577 3.011-.504c2.224-.408 4.425-.932 6.618-1.48V50l-85-14Z" fill="#FFF"/>
	<path d="M181 96c5.748 3.406 8.717 8.544 10.535 14.858.813 3.746.691 7.51.715 11.33l.063 2.462c.046 7.292-1.134 14.736-6.25 20.287l-1.465 1.653c-2.672 2.358-4.947 3.325-8.473 3.785-4.623-.555-7.442-2.501-10.543-5.953-5.082-6.617-5.973-13.596-5.957-21.734l.005-2.542c.171-8.67 2.198-15.775 8.37-22.146 4.264-2.842 7.997-2.741 13-2Z" fill="#FFF"/>
</svg>